<svg width="54" height="20" viewBox="0 0 54 20" fill="none" xmlns="http://www.w3.org/2000/svg">
<path fill-rule="evenodd" clip-rule="evenodd" d="M36.1934 0.0645141V20H40.4514V12.6452H48.3869C50.5159 12.6452 53.4192 11.0581 53.4192 6.25806C53.4192 2.38709 50.3224 0.0645161 48.7095 0L36.1934 0.0645141ZM40.2578 3.54838V9.16128H46.2578C47.2256 9.16128 49.161 8.77419 49.161 6.45161C49.161 4.12903 47.4191 3.54838 46.2578 3.54838H40.2578Z" fill="#1B305B"/>
<path d="M0 19.9999V0.0644531H4.25806V16.129H13.1613V19.9999H0Z" fill="#1B305B"/>
<path fill-rule="evenodd" clip-rule="evenodd" d="M16.6445 0.0644531V19.9999H20.5155V0.0644531H16.6445ZM28.064 0.0644531L20.5156 8.96768V9.93542L28.064 19.9999H33.2898L25.7414 9.54832L33.2898 0.0644531H28.064Z" fill="#1B305B"/>
</svg>
